<?xml version="1.0" encoding="UTF-8"?>
<!DOCTYPE svg PUBLIC "-//W3C//DTD SVG 1.1//EN" "http://www.w3.org/Graphics/SVG/1.1/DTD/svg11.dtd">
<!-- Creator: CorelDRAW 2019 (64-Bit) -->
<svg xmlns="http://www.w3.org/2000/svg" xml:space="preserve" width="134.468mm" height="133.879mm" version="1.1" style="shape-rendering:geometricPrecision; text-rendering:geometricPrecision; image-rendering:optimizeQuality; fill-rule:evenodd; clip-rule:evenodd"
viewBox="0 0 1886.72 1878.44"
 xmlns:xlink="http://www.w3.org/1999/xlink">
 <defs>
  <style type="text/css">
   <![CDATA[
    .fil0 {fill:black;fill-rule:nonzero}
    .fil3 {fill:#2220FF;fill-rule:nonzero}
    .fil1 {fill:#A1D2FF;fill-rule:nonzero}
    .fil2 {fill:white;fill-rule:nonzero}
   ]]>
  </style>
 </defs>
 <g id="Слой_x0020_1">
  <metadata id="CorelCorpID_0Corel-Layer"/>
  <path class="fil0" d="M446.75 452.67c8.67,-2.92 17.33,-4.88 26.48,-6.03 -11.79,9.43 -23.83,18.29 -36.59,26.13 -7.22,4.65 -15.16,-6.03 -9.15,-11.96 0,-0.05 0.24,-0.09 0.24,-0.15 6.02,-3.06 12.52,-5.74 19.02,-7.99z"/>
  <path class="fil0" d="M849.7 30.28c-5.3,-1.53 -10.83,-2.73 -16.13,-3.64 -0.72,-4.68 -0.48,-9.33 2.41,-12.44 0.96,-1.1 3.13,-1.77 4.57,-1.19 6.26,2.44 7.94,10.38 9.15,17.27z"/>
  <path class="fil0" d="M983.29 143.96c0,0.05 0,0.05 0,0 -4.33,-2.24 -7.94,-5.26 -9.15,-9.77 -1.45,-4.59 2.17,-8.71 6.74,-8.94 2.65,-0.09 5.3,1.19 7.22,1.91 0.48,0.2 0.96,0.38 1.44,0.63 0.48,1.58 0.96,3.16 1.45,4.73 1.69,5.89 -2.65,10.53 -7.7,11.44z"/>
  <path class="fil0" d="M1033.6 171.04c-0.96,7.61 -4.57,14.5 -8.91,20.86 -0.48,1.06 -1.2,2.11 -1.93,3.11 -2.65,3.78 -7.46,5.45 -11.55,3.02 -0.96,-0.57 -1.93,-1.33 -2.41,-2.2 -1.93,-2.68 -2.17,-6.36 -0.48,-9.29 1.93,-3.44 3.61,-6.88 5.3,-10.52 0.48,-1.38 0.96,-2.2 1.44,-4.01 0.24,-0.77 0.48,-1.58 0.72,-2.4 0,-0.24 0.24,-1.05 0.24,-1.29 0,-0.87 0.24,-1.72 0.24,-2.54 0,-0.05 -0.24,-1.63 -0.24,-1.81 0,-0.63 -0.24,-1.3 -0.48,-1.96 0,-0.33 0,-0.33 0,-0.28 0,-0.04 -0.24,-0.2 -0.24,-0.48 -0.48,-0.63 -0.72,-1.2 -1.2,-1.78 0,-0.09 -0.72,-1.05 -0.96,-1.24 -0.48,-0.52 -0.96,-1.01 -1.45,-1.49 -0.24,-0.19 -0.72,-0.43 -0.96,-0.62 -2.41,-1.82 -5.3,-3.21 -8.18,-4.54 -0.24,-0.15 -0.48,-0.25 -0.72,-0.29 0,-0.05 -0.24,-0.09 -0.24,-0.14 -0.96,-0.29 -1.69,-0.62 -2.41,-0.9 -1.69,-0.63 -3.37,-1.2 -5.06,-1.82 -3.13,-1.24 -7.22,-2.54 -10.83,-4.45 0,0.05 0,0.05 0,0 -4.33,-2.24 -7.94,-5.26 -9.15,-9.77 -1.45,-4.59 2.17,-8.71 6.74,-8.94 2.65,-0.09 5.3,1.19 7.22,1.91 0.48,0.2 0.96,0.38 1.44,0.63 0.72,0.28 1.45,0.57 2.17,0.85 0.24,0.09 1.69,0.63 1.69,0.63 3.61,1.38 7.46,2.44 11.07,3.63 7.7,2.58 15.65,6.17 21.42,12.16 6.74,7.08 9.15,16.32 7.7,25.98z"/>
  <path class="fil0" d="M1026.38 217.32c-0.24,10.19 -1.2,20.38 -2.89,30.47 -4.81,31.48 -18.05,62.39 -39.96,85.88 -0.72,0.96 -1.68,1.92 -2.65,2.82 -3.85,3.83 -7.7,7.46 -12.03,10.82 -7.46,6.17 -15.89,11.48 -24.55,15.65 -6.98,3.3 -14.2,6.07 -21.66,7.98 -0.24,0.06 -0.48,0.09 -0.48,0.15 -6.5,1.52 -13.72,3.21 -20.46,2.87 -0.72,0 -1.69,-0.1 -2.41,-0.2 -4.57,-0.57 -8.18,-3.01 -8.91,-7.84 -0.72,-4.21 2.17,-9.09 6.5,-9.99 8.67,-1.82 17.33,-2.15 26,-4.84 8.43,-2.62 16.13,-6.4 23.35,-11.05 5.3,-3.34 10.35,-7.12 15.16,-11.29 4.57,-4.16 8.91,-8.71 12.76,-13.54 3.13,-3.64 5.78,-7.47 8.42,-11.38 10.83,-16.84 17.33,-35.65 21.18,-55.12 0.72,-4.07 1.44,-8.13 2.17,-12.25 0.72,-5.31 1.2,-10.72 1.69,-16.08 0,-0.67 0,-1.34 0,-2 0.48,-7.51 0.24,-15.07 1.2,-22.54 0.24,-2.83 0.72,-5.59 1.44,-8.38 1.93,-6.94 10.83,-5.88 13.24,0 0.48,1.44 0.96,2.93 1.2,4.45 2.17,8.19 2.17,16.99 1.69,25.42z"/>
  <path class="fil0" d="M922.63 370.95c-0.72,5.89 -2.89,11.87 -4.09,17.42 -1.93,7.85 -4.09,15.7 -6.02,23.54 -1.93,7.8 -4.09,15.65 -6.02,23.5 -0.48,1.15 -0.72,2.34 -0.96,3.59 -1.44,6.5 -2.65,13.96 -6.26,19.28 -0.48,0.67 -0.96,1.29 -1.44,1.92 -4.57,5.12 -14.2,2.53 -15.65,-4.12 -1.69,-8.23 2.65,-18.05 4.57,-26.07 2.17,-7.81 4.33,-15.65 6.26,-23.45 2.17,-7.85 4.09,-15.69 6.5,-23.44 0.72,-2.92 1.44,-6.03 2.17,-9.14 1.44,-5.5 3.37,-10.91 6.74,-15.12 3.85,-4.74 13,-2.25 14.2,3.73 0.48,2.73 0.48,5.55 0,8.37z"/>
  <path class="fil0" d="M1018.2 223.22c-2.41,-2.03 -4.81,-2.76 -7.94,-2.89 -1.69,-0.08 -3.61,0.06 -5.3,0.07 -3.37,0.02 -6.74,-0.12 -10.11,-0.41 -0.72,-0.07 -1.69,-0.16 -2.65,-0.26 0,-0.01 -0.96,-0.12 -1.2,-0.17 -1.69,-0.24 -3.13,-0.49 -4.81,-0.79 -1.69,-0.33 -3.37,-0.78 -5.06,-1.06 -0.72,-0.12 -1.44,-0.22 -2.17,-0.32 -0.96,-0.29 -1.93,-0.35 -2.89,-0.18 -1.93,0.33 -2.41,0.38 -1.44,0.15 -2.65,0.06 -5.54,1.93 -6.02,4.72 -0.72,2.94 0.48,5.55 2.89,7.25 -0.48,-0.29 -0.48,-0.22 0.24,0.25 0.96,0.9 1.93,1.53 3.37,1.88 0.48,0.28 1.2,0.59 1.93,0.85 1.69,0.57 3.37,0.94 5.06,1.32 4.09,0.88 7.94,1.5 12.04,2 3.61,0.44 6.98,0.71 10.59,0.81 4.57,0.12 10.11,0.36 13.48,-3.3 2.41,-2.55 2.89,-7.45 0,-9.91z"/>
  <path class="fil0" d="M952.48 142.37c0,-0.45 -0.24,-0.89 -0.48,-1.3 -0.24,-0.45 -0.24,-0.88 -0.48,-1.29 -0.48,-0.82 -1.2,-1.6 -1.69,-2.41 -0.96,-1.54 -2.17,-3.09 -3.13,-4.64 -0.48,-1.06 -1.44,-1.9 -2.41,-2.54 -0.72,-0.8 -1.93,-1.34 -2.89,-1.62 -1.2,-0.38 -2.41,-0.43 -3.61,-0.16 -1.2,0.06 -2.41,0.41 -3.37,1.07 -1.93,1.24 -3.85,3.09 -4.33,5.4 -0.48,2.38 -0.24,4.8 0.96,6.96 0.96,1.61 1.93,3.24 2.89,4.86 0.48,0.84 0.96,1.71 1.44,2.52 1.45,2.23 3.37,4.02 6.02,4.74 2.41,0.64 4.81,0.31 6.98,-0.92 2.17,-1.18 3.61,-3.23 4.33,-5.47 0.24,-1.62 0.24,-3.61 -0.24,-5.22z"/>
  <path class="fil0" d="M922.39 113.55c0,0.02 0,0 0,-0.05 0,0.03 0,0.06 0,0.05l0 0z"/>
  <path class="fil0" d="M936.6 106.58c0.24,-2.01 -0.96,-4.55 -3.13,-4.92 -3.85,-0.65 -7.94,-0.81 -11.79,0.04 -3.61,0.74 -7.22,2.53 -10.11,4.44 -3.13,1.95 -6.02,4.32 -8.18,7.15 -2.89,3.38 -7.46,9.04 -4.57,13.54 1.44,2.09 3.37,2.72 5.78,2.35 2.65,-0.41 4.09,-2.96 5.3,-4.95 0.48,-0.59 0.72,-1.18 1.2,-1.76 0,-0.04 0,-0.13 0.24,-0.24 0,-0.15 0.24,-0.48 0.48,-0.56 0.96,-1.19 1.93,-2.31 3.13,-3.36 0.48,-0.48 0.96,-0.93 1.44,-1.38 0,-0.02 0,-0.02 0,-0.04 0.24,-0.03 0.24,-0.04 0.24,-0.06 0.24,-0.21 0.48,-0.41 0.96,-0.61 1.2,-0.83 2.41,-1.57 3.61,-2.23 0.48,-0.15 0.72,-0.3 0.96,-0.45 0.24,0 0.24,0 0.24,0 -0.24,0 -0.24,0.01 -0.24,0.01l0.24 -0.01c0.72,-0.34 0.48,-0.16 0,-0.05 0.72,-0.15 1.93,-0.67 1.93,-0.73 1.44,-0.51 2.89,-1.06 4.33,-1.47 0.72,-0.18 1.2,-0.36 1.93,-0.52 0.48,-0.08 0.72,-0.16 1.2,-0.23 0.24,-0.04 1.44,-0.2 0.48,-0.08 2.17,-0.27 4.09,-1.5 4.33,-3.89z"/>
  <path class="fil0" d="M814.8 294.3c-2.65,3.11 -6.74,4.64 -11.31,5.36 -4.57,0.73 -9.39,0.57 -13.24,0.25 -0.96,-0.09 -1.68,-0.15 -2.65,-0.29 -7.7,-0.91 -15.4,-3.21 -22.15,-7.08 -25.76,-14.45 -36.11,-49.43 -18.53,-74.02 8.67,-11.72 21.42,-19.52 36.35,-19.47 8.43,0.05 16.61,2.73 23.35,7.56 3.37,2.53 6.5,5.64 9.15,9.33 0.48,0.57 0.72,1.1 1.2,1.67 3.37,5.5 -4.57,11.2 -8.91,6.8 -7.22,-7.03 -19.02,-10.43 -28.65,-8.28 -20.22,4.31 -29.85,26.8 -21.9,45.12 3.85,9.28 11.55,16.89 20.7,20.82 5.3,2.25 11.07,3.39 16.61,3.53 5.78,0.14 12.04,-1.82 17.57,-0.09 4.09,1.24 5.05,5.79 2.41,8.8z"/>
  <path class="fil0" d="M852.59 117.08c-2.41,18.37 -6.5,36.46 -12.52,53.97 -2.89,8.47 -6.26,16.8 -10.11,24.88 -3.37,7.18 -6.26,17.42 -14.2,20 -0.72,0.29 -1.44,0.48 -2.41,0.57 -2.17,0.29 -4.81,-1.43 -5.78,-3.3 -0.96,-2.15 -1.2,-4.35 -0.96,-6.6 0.72,-6.03 5.3,-12.25 7.46,-17.61 3.37,-8.09 6.74,-16.27 9.39,-24.59 5.54,-16.13 9.39,-32.83 11.79,-49.68 2.41,-17.08 3.13,-34.49 2.41,-51.71 -0.48,-8.47 -1.2,-16.99 -2.41,-25.41 -0.24,-3.16 -1.2,-7.09 -1.69,-10.96 -0.72,-4.68 -0.48,-9.33 2.41,-12.44 0.96,-1.1 3.13,-1.77 4.57,-1.19 6.26,2.44 7.94,10.38 9.15,17.27 0.48,1.87 0.72,3.68 0.96,5.26 1.69,8.76 2.65,17.56 3.37,26.46 1.44,18.37 0.96,36.79 -1.45,55.07z"/>
  <path class="fil0" d="M821.3 242.48c-0.72,-0.89 -1.69,-1.58 -2.65,-2.18 -0.48,-0.29 -0.96,-0.55 -1.2,-0.79 -0.24,-0.06 -1.2,-0.51 -0.96,-0.28 -0.96,-0.59 -1.69,-1.2 -2.89,-1.57 -0.48,-0.16 -0.96,-0.28 -1.69,-0.42 -0.96,-0.28 -2.17,-0.56 -3.13,-0.83 -4.33,-1.1 -8.91,-1.99 -13.24,-2.75 -4.57,-0.76 -14.44,-3.08 -14.68,4.06 -0.24,4.24 4.33,5.73 7.46,6.65 2.65,0.77 5.54,1.44 8.42,2.07 2.65,0.59 5.3,1.08 7.94,1.5l4.09 0.62c0.96,0.15 1.93,0.3 2.89,0.42 0.96,0.11 1.69,0.01 2.41,-0.2 2.17,-0.08 4.33,-0.22 6.26,-1.22 1.93,-1.09 2.65,-3.21 0.96,-5.09z"/>
  <path class="fil0" d="M803.73 298.08c0,0.53 -0.24,1.05 -0.24,1.58 -2.65,12.92 -3.13,25.98 -2.89,39.14 0.72,48.89 9.87,98.61 -12.52,144.44 -8.67,17.7 -22.15,34.12 -40.44,42.73 -23.83,11.49 -50.55,8.47 -75.1,0.24 -31.29,-10.52 -60.66,-26.22 -90.99,-39.14 -8.43,-3.63 -17.09,-7.03 -25.76,-9.99 -11.55,-4.03 -23.11,-7.33 -35.38,-9.57 -25.28,-4.64 -52.72,-5.22 -76.79,4.74 -23.11,9.48 -42.13,27.46 -59.7,44.45 -76.06,73.26 -146.35,152.82 -204.36,241.15 -28.64,43.46 -54.4,90.24 -64.99,141.66 -9.39,46.28 -2.89,93.76 22.87,133.74 23.59,36.68 60.66,63.81 103.26,73.71 45.49,10.59 93.64,1.58 133.59,-22.58 11.55,-7.02 21.42,10.49 10.35,18.01 -10.35,7.13 -21.18,12.77 -32.74,17.53 -45.25,18.21 -97.49,18.51 -142.5,0.09 -42.6,-17.37 -78.23,-50.48 -98.69,-91.52 -23.11,-45.39 -25.52,-96.72 -13.24,-145.57 13.24,-52.27 40.68,-99.89 70.77,-144.22 30.57,-45.51 64.51,-88.81 100.62,-130.05 17.81,-20.34 36.11,-40.2 54.88,-59.62 18.29,-19.04 37.07,-38.28 56.81,-55.83 14.68,-12.78 30.09,-24.07 47.18,-32.54 6.02,-3.06 12.52,-5.74 19.02,-7.99 8.67,-2.92 17.33,-4.88 26.48,-6.03 18.05,-2.34 36.83,-1.29 54.64,2.06 7.46,1.44 14.92,3.25 22.39,5.41 2.89,0.82 5.78,1.67 8.42,2.59 16.61,5.36 32.5,12.11 48.38,19.15 25.03,11.14 49.83,24.3 76.06,32.39 22.15,6.79 46.22,8.46 65.47,-6.18 15.65,-11.91 25.03,-30.86 30.09,-49.47 6.74,-23.74 5.78,-48.24 4.81,-72.68 -1.2,-26.89 -1.93,-53.97 4.09,-80.29 0.48,-1.86 0.96,-3.73 1.45,-5.55 2.41,-9.57 16.61,-5.51 14.68,4.02z"/>
  <path class="fil0" d="M1366.26 742.24c-7.22,0.48 -14.44,0.91 -21.66,1.39 -10.11,-32.16 -24.07,-62.82 -41.16,-91.82 -4.09,-6.8 -8.18,-13.46 -12.52,-20.05 -20.7,-31.83 -45.01,-61.25 -71.25,-88.52 -26.24,-27.14 -54.88,-52.78 -88.1,-71.15 -24.07,-13.31 -49.83,-21.01 -76.3,-24.6 -8.67,-1.15 -17.57,-1.86 -26.24,-2.15 -4.33,-0.19 -8.67,-0.28 -13,-0.23 -15.4,0.09 -30.57,1.15 -45.73,2.87 -5.54,0.57 -10.83,1.3 -16.37,2.06 -0.24,0.05 -0.48,0.05 -0.72,0.09 -18.05,2.58 -35.86,6.12 -53.92,8.13 -2.65,0.29 -5.06,0.57 -7.7,0.77 -9.39,0.71 -10.35,-13.12 -2.17,-15.65 5.3,-1.68 10.59,-3.11 16.13,-4.4 15.41,-3.73 31.05,-6.27 46.46,-8.47 3.37,-0.48 6.74,-0.96 10.11,-1.39 2.17,-0.29 4.33,-0.57 6.5,-0.86 14.2,-1.77 28.64,-3.01 42.85,-3.39 7.94,-0.28 16.13,-0.24 24.07,0.09 0.48,0 0.96,0.06 1.45,0.1 41.4,2.01 80.88,13.73 116.26,35.55 34.18,20.95 63.79,48.8 90.99,77.89 31.77,34.07 60.18,71.52 83.05,112.1 16.13,28.81 29.37,59.14 38.99,91.01 0,0.19 0,0.43 0,0.62z"/>
  <path class="fil0" d="M1036.97 425.07c-0.48,-0.05 -0.96,-0.1 -1.45,-0.1 -7.94,-0.33 -16.13,-0.38 -24.07,-0.09 -14.2,0.39 -28.64,1.62 -42.85,3.39 -2.17,0.29 -4.33,0.57 -6.5,0.86 -3.37,0.43 -6.74,0.91 -10.11,1.39 -15.41,2.2 -31.05,4.74 -46.46,8.47 0.24,-1.25 0.48,-2.45 0.96,-3.59 1.93,-7.85 4.09,-15.69 6.02,-23.5 1.93,-7.84 4.09,-15.7 6.02,-23.54 1.2,-5.55 3.37,-11.53 4.09,-17.42 7.46,-1.91 14.68,-4.68 21.66,-7.98 8.67,-4.17 17.09,-9.48 24.55,-15.65 4.33,-3.36 8.18,-6.99 12.03,-10.82 0.96,-0.9 1.93,-1.86 2.65,-2.82 8.18,18.19 16.61,36.27 26.48,53.45 6.26,10.58 13,20.91 20.46,30.44 2.17,2.53 4.33,5.07 6.5,7.51z"/>
  <path class="fil0" d="M976.79 318.32c2.17,5.11 4.57,10.24 6.74,15.35 -0.72,0.96 -1.68,1.92 -2.65,2.82 -3.85,3.83 -7.7,7.46 -12.03,10.82 -2.65,-6.18 -5.06,-12.35 -7.46,-18.57 4.57,-4.16 8.91,-8.71 12.76,-13.54 1.2,0.76 1.93,1.77 2.65,3.11z"/>
  <path class="fil0" d="M1055.27 447.5c-8.67,-1.15 -17.57,-1.86 -26.24,-2.15 -4.33,-4.4 -8.42,-8.99 -12.52,-13.88 -1.69,-2.15 -3.37,-4.35 -5.06,-6.6 7.94,-0.28 16.13,-0.24 24.07,0.09 0.48,0 0.96,0.06 1.45,0.1 1.93,2.29 4.09,4.59 6.26,6.79 2.17,2.29 4.57,4.4 6.5,6.8 2.41,2.68 3.61,5.22 5.06,8.23 0.24,0.19 0.24,0.39 0.48,0.62z"/>
  <path class="fil0" d="M1008.09 172.87c-0.96,-0.83 -2.17,-1.44 -3.37,-1.38 -1.2,0.05 -2.65,0.42 -3.37,1.38 -1.45,2.05 -3.13,4.11 -4.82,6.16 -0.96,1.24 -1.93,2.47 -2.89,3.75 -0.48,0.54 -0.72,1.11 -1.2,1.67 -0.48,0.83 -0.72,1.69 -0.96,2.64 -0.24,1.37 0,2.67 1.2,3.71 0.72,0.86 2.41,1.47 3.61,0.97 0.96,-0.45 2.17,-0.83 2.89,-1.64 0.48,-0.44 0.96,-0.96 1.44,-1.44 0.96,-0.96 1.69,-2.03 2.65,-3.05 1.44,-2.03 3.13,-4.07 4.81,-6.11 0.72,-1 1.44,-1.98 1.44,-3.33 0,-1.15 -0.48,-2.53 -1.44,-3.33z"/>
  <path class="fil1" d="M1850.33 265.26c-7.46,11.05 -18.05,18.7 -30.09,24.26 0,-0.2 0,-0.43 0,-0.63 -1.69,-12.86 -9.39,-24.93 -20.46,-31.53 6.5,-20 -8.91,-40.87 -30.09,-40 -2.17,-5.46 -7.22,-9.23 -13,-10.72 -0.96,-0.24 -1.93,-0.39 -2.89,-0.52 -10.35,-1.39 -18.77,4.4 -24.55,12.48 -5.3,7.13 -8.91,15.17 -13.48,22.87 -1.69,3.11 -3.61,6.18 -5.54,9.09 -7.22,10.1 -15.89,19.19 -25.51,27.08 -37.55,30.91 -87.14,37.61 -132.15,51.87 -24.07,7.66 -46.7,17.6 -65.47,34.69 -21.66,1.72 -45.74,2.77 -65.23,-7.51 -32.98,-17.18 -33.46,-64.88 -39.48,-97.13 -7.94,-43.49 -16.85,-89.62 -17.09,-133.92 -0.24,-34.64 12.28,-69.57 44.77,-85.94 21.9,-11 47.42,-13.49 71.25,-17.12 53.2,-8.13 107.12,-13.06 160.79,-16.27 26.96,-1.64 53.92,-2.88 80.64,-3.93 13.72,-0.57 27.44,-1.04 41.16,-1.52 11.55,-0.43 23.59,-1.48 35.38,-0.34 11.31,1.1 22.15,4.35 30.81,11.96 7.94,6.94 12.76,16.7 15.89,26.6 3.37,10.49 4.57,21.58 6.26,32.44 1.93,13.74 3.61,27.47 5.06,41.3 2.65,26.99 4.09,54.11 4.33,81.24 0.24,23.31 2.41,50.96 -11.31,71.21z"/>
  <path class="fil2" d="M1563.4 234.39c-30.57,-15.07 -62.34,-28.04 -94.84,-38.78 11.55,-8.66 23.35,-17.33 34.9,-26.1 8.43,-6.39 16.85,-12.78 25.28,-19.16 4.33,-3.36 8.91,-6.72 13.24,-10.23 4.09,-3.39 8.91,-6.4 11.07,-11.46 1.93,-4.71 -0.24,-12.63 -6.74,-11.81 -10.59,1.27 -19.5,9.89 -27.68,15.99 -8.67,6.28 -17.09,12.57 -25.52,18.85 -17.33,12.81 -34.42,25.87 -51.75,38.83 -6.74,5.1 -6.5,15.97 2.65,18.63 37.55,11.08 74.14,25.13 109.52,42.2 11.31,5.46 21.18,-11.37 9.87,-16.94z"/>
  <path class="fil2" d="M1662.57 64.05c-3.13,-2.51 -6.02,-2.69 -9.39,-1.22 -5.78,2.42 -6.02,7.57 -6.98,12.92 -0.72,4.37 -1.69,8.74 -2.41,13.11 -1.93,9.45 -3.85,18.88 -5.78,28.27 -4.33,18.8 -8.91,37.48 -14.44,55.99 -5.3,18.49 -11.31,36.84 -17.81,54.98 -3.13,9.07 -6.5,18.09 -10.11,27.05 -3.37,8.65 -8.67,17.76 -10.59,26.82 -2.65,12.29 15.4,17.76 19.26,7.01 5.06,-7.91 8.18,-18.37 11.55,-27.09 3.85,-9.29 7.22,-18.65 10.59,-28.08 6.5,-18.14 12.28,-36.51 17.57,-55.07 5.05,-18.56 9.87,-37.29 13.72,-56.17 1.69,-9.45 3.61,-18.94 5.06,-28.44 0.96,-5.12 1.69,-10.25 2.65,-15.39 0.72,-5.49 1.93,-10.62 -2.89,-14.69z"/>
  <path class="fil2" d="M1804.11 161.52c-15.89,15.03 -31.77,30.1 -47.42,45.12 -0.96,-0.24 -1.93,-0.39 -2.89,-0.52 -10.35,-1.39 -18.77,4.4 -24.55,12.48 -5.3,7.13 -8.91,15.17 -13.48,22.87 -6.74,-0.62 -12.28,-9.23 -5.78,-15.31 23.83,-23.01 47.9,-46.03 71.97,-69.04 -14.44,-7.61 -28.64,-15.26 -42.85,-23.25 -8.91,-4.97 -17.57,-10 -26.48,-15.02 -7.46,-4.17 -18.77,-8.8 -22.38,-17.03 -0.96,-2.3 -0.24,-5.65 2.65,-6.18 9.15,-1.77 18.78,4.65 26.96,8.61 8.91,4.6 18.05,9.19 27.2,13.73 18.53,9.33 36.83,19.14 55.12,28.95 5.3,2.77 6.02,10.58 1.93,14.59z"/>
  <path class="fil0" d="M1772.58 243.06c-13.48,56.22 -57.05,104.15 -111.69,122.62 -8.91,2.92 -12.52,-10.8 -3.85,-13.82 28.64,-9.96 53.68,-28.38 72.21,-52.2 9.15,-11.71 17.09,-24.97 22.39,-38.85 5.3,-13.11 10.83,-29.37 9.63,-43.63 -1.44,-16.6 -18.05,-12.06 -25.27,-1.72 -8.18,11.91 -12.04,26.55 -19.74,38.9 -15.89,25.45 -39.47,45.65 -66.92,57.89 -30.33,13.49 -62.82,18.43 -94.36,28.28 -27.68,8.71 -55.36,22.01 -71.73,47.03 -16.13,24.6 -21.66,54.45 -27.2,82.97 -6.74,36.17 -14.2,72.25 -21.18,108.37 -1.2,5.41 -2.17,10.82 -3.37,16.23 -1.2,6.74 -2.65,13.54 -4.09,20.33 -4.09,20.96 -8.43,41.87 -12.76,62.78 -0.72,2.96 -1.2,5.89 -1.93,8.85 -3.61,17.66 -6.98,35.32 -10.83,52.92 -0.72,0 -1.2,0.04 -1.93,0.09 -4.81,0.29 -9.39,0.62 -14.2,0.91 4.33,-24.97 8.67,-49.9 13.24,-74.84 4.09,-22.53 8.18,-45.02 12.52,-67.51 1.44,-7.47 2.65,-14.88 4.09,-22.3 2.89,-14.45 5.54,-28.86 8.18,-43.3 6.74,-35.6 12.04,-71.97 21.91,-106.84 8.91,-31.2 23.83,-59.48 50.55,-78.66 55.12,-39.38 131.91,-28.95 182.94,-76.03 11.31,-10.43 20.94,-22.54 28.64,-35.89 7.46,-13.49 12.04,-29.75 25.27,-38.99 12.04,-8.27 29.37,-8.13 38.03,4.79 7.94,12.01 4.57,28.61 1.44,41.63z"/>
  <path class="fil0" d="M729.35 700.43c-15.65,-47.75 -55.6,-80.77 -100.86,-99.5 -46.94,-19.43 -100.13,-26.99 -150.68,-22.73 -50.31,4.23 -98.69,20.56 -139.85,50.16 -40.44,29.15 -72.94,67.47 -102.06,107.77 -17.57,24.58 -33.7,50.07 -50.79,75.07 -17.09,25.29 -34.9,49.99 -52.96,74.74 -4.09,5.84 4.81,12.07 9.87,7.47 37.79,-35.5 64.75,-81.03 94.36,-123.25 27.44,-39.21 56.33,-77.87 92.91,-109.24 35.86,-30.86 78.47,-51.22 125.17,-59.44 46.7,-8.25 95.56,-4.34 141.05,9 49.1,14.37 98.21,44.27 115.06,95.14 4.09,11.85 22.87,6.81 18.77,-5.19z"/>
  <path class="fil0" d="M1804.35 219.74c-4.33,-6.57 -11.8,-10.61 -19.5,-11.14 -8.91,-0.6 -13.48,4.09 -16.61,11.67 -1.2,3.54 3.85,6.13 6.26,3.6 3.85,-3.89 13.72,-0.94 16.37,2.73 5.3,6.81 2.65,17.76 0.72,25.19 -4.57,17.38 -11.07,33.93 -19.98,49.49 -8.67,15.23 -19.26,29.29 -31.77,41.77 -6.02,6.16 -12.52,11.99 -19.26,17.27 -7.22,5.43 -17.09,9.58 -22.38,16.8 -3.37,4.68 1.2,12.86 6.98,12.16 8.42,-1.02 16.13,-7.45 22.87,-12.47 6.98,-5.18 13.72,-10.71 19.98,-16.68 12.52,-12.01 24.07,-25.72 33.22,-40.52 9.15,-14.55 16.61,-30.31 21.91,-46.64 5.3,-16.21 11.55,-37.68 1.2,-53.25z"/>
  <path class="fil0" d="M1823.37 256.77c-3.85,-7.42 -10.35,-15.7 -19.02,-16.39 -6.26,-0.47 -8.67,6.57 -6.5,11.23 1.69,3.63 5.3,5.62 7.7,8.74 2.17,3.04 3.85,6.62 5.06,10.29 2.41,8.43 1.44,17.1 -1.2,25.4 -4.81,16.27 -15.65,31.43 -26.96,43.87 -11.07,12.11 -24.07,22.56 -38.27,30.83 -7.22,4.22 -14.92,8.02 -22.39,11.35 -7.46,3.16 -15.89,4.88 -22.15,9.86 -2.89,2.25 -0.96,7.04 2.17,7.87 6.98,1.85 14.68,-0.39 21.66,-2.22 7.22,-1.98 14.44,-4.57 21.42,-7.83 13.72,-6.5 26.72,-14.96 38.03,-25.08 22.87,-20.26 46.7,-51.51 46.46,-83.51 0,-8.47 -2.17,-16.89 -6.02,-24.41z"/>
  <path class="fil0" d="M1842.86 292.8c-4.57,-4.29 -12.52,-9.41 -18.29,-3.94 -5.78,5.79 0.48,11.3 4.81,15.39 8.43,8.15 8.67,21.03 3.85,31.2 -5.78,12.69 -17.57,22.4 -29.13,29.91 -13.96,9.11 -29.37,15.46 -45.73,18.92 -7.94,1.71 -16.13,2.84 -24.55,3.19 -7.94,0.33 -16.61,-0.83 -24.31,1.28 -4.33,1.18 -4.81,6.91 -1.2,9.22 6.02,3.82 13.96,4.45 20.7,4.96 7.7,0.58 15.65,0.24 23.35,-0.72 14.92,-1.84 29.13,-6.09 42.85,-12.2 24.79,-11.08 54.64,-32.03 58.97,-60.98 1.93,-12.67 -1.69,-27.24 -11.31,-36.24z"/>
  <path class="fil0" d="M1768.48 395.59c-5.3,4.21 -11.79,5.65 -18.05,7.32 -6.74,1.82 -13,3.64 -19.74,5.41 -13.24,3.5 -26.24,7.28 -39.23,11.06 -13.48,3.92 -26.72,8.09 -39.96,12.54 -3.61,1.2 -7.22,2.59 -10.83,3.97 -5.78,2.25 -11.79,4.65 -17.81,6.66 -0.24,-6.8 -0.72,-13.63 -1.2,-20.43 5.54,-2.01 11.07,-3.73 16.61,-5.45 2.89,-0.87 5.54,-1.72 8.18,-2.63 13,-4.21 26,-8.18 38.99,-11.91 13.48,-3.78 27.2,-7.03 40.68,-10.01 7.22,-1.52 14.2,-2.72 21.42,-3.92 6.02,-1.01 12.76,-2.54 18.77,-0.67 3.13,1.01 5.06,5.64 2.17,8.09z"/>
  <path class="fil0" d="M1647.89 601.95c0,7.9 -0.24,15.75 -0.48,23.64 0,6.32 -0.24,12.69 -0.24,18.99 -1.2,40.15 -3.61,80.24 -7.46,120.19 -4.81,48.56 -10.59,97.7 -25.76,144.39 -13.96,42.76 -35.86,83.16 -69.08,113.99 -18.29,17.03 -41.4,32.77 -66.2,41.53 -7.46,2.62 -15.16,4.66 -22.87,5.84 0,-6.78 -0.24,-13.56 -0.48,-20.39 7.7,-1.84 15.16,-4.16 22.63,-7.08 5.3,-2.02 10.35,-4.4 15.65,-7.13 19.26,-10.49 36.59,-24.64 51.27,-41.03 29.61,-33.01 46.94,-74.64 57.77,-117.2 11.79,-46.88 16.37,-95.44 20.22,-143.52 2.17,-26.74 3.61,-53.49 4.57,-80.29l0 0c0.24,-6.31 0.48,-12.63 0.72,-18.9 0.48,-19.28 0.72,-38.56 0.48,-57.84 -0.24,-44.98 -2.65,-89.77 -5.78,-134.6 -0.24,-6.8 -0.72,-13.63 -1.2,-20.43 5.54,-2.01 11.07,-3.73 16.61,-5.45 0.24,0.71 0.48,1.53 0.48,2.34 0.72,5.65 1.45,11.25 1.93,16.89 5.78,55.08 7.46,110.73 7.22,166.08z"/>
  <path class="fil0" d="M688.67 1680.63c-3.37,6.38 -6.98,12.87 -10.59,19.36 -7.46,-0.45 -14.92,-0.94 -22.39,-1.48 -32.5,-2.14 -64.75,-4.31 -97.01,-6.44 -58.73,-3.96 -117.47,-7.81 -176.2,-11.73 -55.36,-3.71 -111.45,-5.7 -166.57,-15.15 -48.62,-8.46 -97.01,-24.15 -136.72,-54.3 -35.38,-26.87 -64.75,-63.95 -75.1,-107.91 -23.11,-99 56.09,-181.86 127.34,-237.6 40.44,-31.53 83.77,-59.14 129.74,-82.07 22.63,-11.38 46.22,-21.63 69.81,-30.83 16.13,-6.14 32.25,-11.83 48.62,-16.13 0.96,6.13 1.93,12.27 2.89,18.41 -2.89,1.09 -5.78,2.08 -8.42,3.07 -92.67,32.32 -179.81,80.64 -254.43,144.58 -34.42,29.7 -67.4,64.49 -85.69,106.81 -16.85,39.26 -16.85,83.11 2.89,121.28 19.5,37.82 53.2,67.16 90.99,85.98 45.25,22.57 96.52,30.89 146.35,35.63 55.12,5.15 110.49,7.92 165.37,11.63 57.53,3.91 115.06,7.78 172.59,11.63 18.05,1.24 36.11,2.48 54.16,3.71 7.46,0.45 14.92,0.99 22.39,1.53z"/>
  <path class="fil0" d="M783.75 1706.96c-8.18,-0.5 -16.37,-1.04 -24.55,-1.59 -2.17,-6.53 -3.37,-13.31 -3.61,-20.19 7.22,0.44 14.44,0.94 21.66,1.43 0.48,5.6 1.69,11.14 4.33,16.44 0.72,1.38 1.45,2.67 2.17,3.91z"/>
  <path class="fil0" d="M955.85 1718.45c-0.72,-0.05 -1.45,-0.09 -2.17,-0.15 -13.48,-0.88 -27.2,-1.78 -40.68,-2.71 -30.09,-1.99 -60.18,-3.96 -90.27,-5.94 -11.79,-0.79 -23.35,-1.53 -34.9,-2.38 6.5,-3.57 12.76,-7.22 19.02,-10.94 3.85,-2.32 7.46,-4.61 11.31,-6.93 11.31,0.74 22.39,1.53 33.7,2.27 34.66,2.33 69.32,4.7 103.99,7.03 4.81,0.35 7.7,3.22 8.91,6.68 1.93,5.94 -0.96,13.62 -8.91,13.07z"/>
  <path class="fil0" d="M1878.73 1446.16c-25.03,82.7 -103.74,136.9 -183.9,158.29 -50.07,13.36 -102.3,16.28 -153.81,16.23 -53.92,-0.05 -107.84,-2.28 -161.76,-3.66 -71.25,-1.88 -142.74,-3.62 -214.23,-5.45 -6.5,-0.2 -12.76,-0.35 -19.26,-0.54 -7.46,-0.2 -14.92,-0.35 -22.15,-0.55 -8.67,-0.2 -17.09,-0.4 -25.52,-0.65 -15.89,-0.39 -31.77,-0.79 -47.66,-1.18l-0.24 0c-1.44,-0.05 -2.89,-0.09 -4.57,-0.15 -11.31,-0.29 -13.24,-15.64 -5.06,-19.9 0,0 0,0 0.24,0 1.2,-0.74 2.89,-1.09 4.81,-1.03 12.04,0.24 23.83,0.53 35.62,0.84 1.69,0.05 3.37,0.1 5.06,0.15 6.98,0.2 13.96,0.35 20.94,0.55 13.24,0.29 26.48,0.64 39.72,0.99 6.74,0.15 13.24,0.35 19.98,0.44 80.4,2.03 160.55,4.11 240.95,6.05 52.23,1.28 104.47,3.66 156.46,2.57 49.35,-1.03 98.93,-5.99 145.87,-21.82 72.94,-24.61 142.98,-82.42 153.57,-162.55 5.54,-42.82 -5.78,-86.72 -26.72,-123.99 -21.66,-38.36 -53.44,-69.94 -89.3,-94.94 -38.03,-26.68 -80.39,-46.18 -123.48,-63.4 -47.66,-19.21 -97.73,-33.86 -144.18,-55.94 -0.48,-0.2 -0.72,-0.39 -0.96,-0.59 -3.37,-2.27 -2.89,-6.73 -0.48,-9.4 1.44,-1.68 3.85,-2.68 6.5,-1.94 12.28,3.76 24.55,7.58 36.83,11.63 94.12,31.04 192.33,61.09 269.11,126.72 68.36,58.36 115.06,152.85 87.62,243.24z"/>
  <path class="fil1" d="M1223.28 1325.78c-27.2,-0.2 -54.16,-2.97 -81.12,-5.99 -37.79,-4.21 -75.58,-9.51 -113.37,-7.48 -32.74,1.69 -65.71,7.48 -95.8,21.14 -14.44,6.58 -28.16,15.15 -40.44,25.58 -12.76,10.99 -23.83,27.03 -41.64,29.36 -11.55,1.53 -23.11,-2.03 -34.18,-5.2 -11.07,-3.22 -22.39,-6.09 -33.94,-9.06 -15.4,-4.06 -30.81,-8.57 -46.46,-12.82 -0.96,-4.66 -1.93,-9.41 -2.89,-14.16 -4.09,-21.88 -7.22,-43.86 -9.15,-66.03 -1.93,-18.67 -2.41,-39.85 13.24,-53.27 14.68,-12.66 36.35,-15.74 54.64,-20.24 21.66,-5.34 43.33,-10.25 65.23,-14.75 88.1,-18.01 177.64,-28.6 267.43,-31.53 18.53,-0.64 38.75,-1.64 53.92,11.28 14.2,12.28 17.33,33.66 21.66,50.89 5.54,22.52 11.07,45.04 16.85,67.51 2.65,11.14 6.5,23.32 6.02,34.75z"/>
  <path class="fil0" d="M850.42 1389.83l0 0c3.85,-4.61 7.7,-9.2 11.55,-13.76 0.96,2.18 1.2,4.61 0.72,6.79 -1.69,5.69 -6.98,7.72 -12.28,6.97z"/>
  <path class="fil0" d="M1050.45 1608.66l-0.24 0c-7.22,0.5 -14.44,1.33 -21.66,2.53 -3.37,0.55 -6.74,1.14 -10.11,1.88 -4.33,0.88 -8.91,1.93 -13.24,3.11 -55.36,14.51 -104.47,45.1 -153.33,75.48 -9.87,6.05 -19.5,12.08 -29.13,17.97 -7.22,4.31 -14.68,8.61 -21.9,12.83 -7.22,4.2 -14.44,8.21 -21.91,12.02 -1.69,0.94 -3.61,1.88 -5.3,2.77 -20.7,10.54 -42.12,19.9 -64.51,26.83 -20.7,6.43 -52.71,15.94 -64.27,-10.1 -8.18,-18.32 1.44,-38.32 10.83,-55.49 2.41,-4.31 4.81,-8.37 6.74,-12.23 1.45,-2.43 2.65,-4.79 3.85,-7.18 7.46,0.45 14.92,0.99 22.39,1.53 -3.37,6.38 -6.98,12.87 -10.59,19.36 -2.89,5.49 -5.78,11.08 -8.67,16.62 -4.09,7.67 -8.67,17.87 -6.98,26.78 2.17,10.5 14.92,8.72 22.87,6.99 28.16,-6.29 54.88,-17.62 80.4,-30.99 6.5,-3.37 13,-6.88 19.5,-10.5 0.72,-0.54 1.69,-1.03 2.65,-1.63 6.5,-3.57 12.76,-7.22 19.02,-10.94 3.85,-2.32 7.46,-4.61 11.31,-6.93 55.36,-33.61 110.24,-71.53 171.87,-90.28 7.22,-2.23 14.68,-4.16 22.15,-5.75 9.15,-2.13 18.77,-3.7 28.4,-4.75 0,0 0,0 0.24,0 3.13,-0.35 6.26,-0.59 9.39,-0.83 13.48,-0.89 13.24,19.85 0.24,20.88z"/>
  <path class="fil0" d="M1591.08 1311.27c-14.92,2.23 -29.61,3.42 -44.53,4.31 -21.91,1.39 -44.05,2.48 -65.71,3.36 -7.7,0.35 -15.16,0.6 -22.63,0.89 -30.33,1.14 -60.66,2.13 -90.75,3.32 -58.73,2.28 -117.22,4.26 -175.72,6.34 -1.93,0.05 -3.61,0.15 -5.54,0.2 -4.81,0.2 -9.39,0.35 -14.2,0.49 -33.7,1.05 -67.64,1.29 -101.1,-1.38 -8.42,-0.7 -16.61,-1.53 -24.79,-2.58 7.22,-5.99 14.92,-11.98 23.11,-17.08 6.98,0.59 13.72,1.09 20.7,1.44 42.37,2.08 84.97,-0.3 127.09,-1.84 62.1,-2.18 124.21,-4.46 186.31,-6.49 18.29,-0.55 36.59,-1.19 54.88,-1.73 7.46,-0.25 15.16,-0.5 22.87,-0.79 5.05,-0.15 10.11,-0.35 15.16,-0.44 31.05,-1.04 62.34,-2.43 93.15,-0.1 6.5,0.44 8.91,11.04 1.69,12.08z"/>
  <path class="fil0" d="M1191.75 1329.49c-0.24,0.99 -0.24,2.03 -0.48,3.02 -0.48,6.28 -1.2,12.57 -1.93,18.86 -1.2,13.36 -2.65,26.72 -3.85,40.04 -4.82,46.78 -9.39,93.56 -13.48,140.38 -1.93,19.6 -3.37,39.15 -5.05,58.75 -0.24,3.67 -0.72,7.32 -0.96,10.99 -0.24,3.36 -0.72,6.68 -0.96,10.05 -6.5,-0.2 -12.76,-0.35 -19.26,-0.54 0.24,-6.29 0.72,-12.68 0.96,-19.01 0,-0.64 0.24,-1.29 0.24,-1.93 3.13,-46.63 6.74,-93.26 11.31,-139.73 2.41,-23.56 4.57,-47.22 7.46,-70.74 1.44,-11.77 2.89,-23.55 4.33,-35.34 0.72,-4.7 1.2,-9.41 1.93,-14.11 0.24,-1.58 0.48,-3.17 0.48,-4.75 0.96,-6.09 1.68,-9.9 6.74,-13.71 2.65,-1.88 7.46,-1.14 9.39,1.23 4.33,5.1 3.85,10.49 3.13,16.54z"/>
  <path class="fil0" d="M1069.23 1309.15c-8.18,5.1 -15.89,11.08 -23.11,17.08 -4.33,3.27 -8.18,6.58 -12.28,9.81 -15.89,12.57 -31.29,25.78 -46.46,39.29 -30.09,26.73 -58.73,54.89 -85.93,84.64 -27.2,29.8 -52.96,60.99 -77.03,93.26 -12.28,16.19 -24.07,32.72 -35.38,49.5 -11.55,17.18 -23.11,34.84 -29.37,54.8 -2.89,9.06 -4.33,18.41 -4.09,27.67 0.24,6.87 1.45,13.66 3.61,20.19 1.2,4.01 2.89,7.87 5.05,11.59 0.48,0.84 0.96,1.63 1.45,2.43 -25.52,13.37 -52.23,24.7 -80.4,30.99 -7.94,1.73 -20.7,3.51 -22.87,-6.99 -1.68,-8.9 2.89,-19.1 6.98,-26.78 2.89,-5.54 5.78,-11.13 8.67,-16.62 3.61,-6.49 7.22,-12.98 10.59,-19.36 -7.46,-0.55 -14.92,-1.08 -22.39,-1.53 -18.05,-1.23 -36.11,-2.47 -54.16,-3.71 -57.53,-3.85 -115.06,-7.72 -172.59,-11.63 -54.88,-3.71 -110.24,-6.48 -165.37,-11.63 -49.83,-4.75 -101.1,-13.07 -146.35,-35.63 -37.79,-18.82 -71.49,-48.16 -90.99,-85.98 -19.74,-38.17 -19.74,-82.02 -2.89,-121.28 18.29,-42.32 51.27,-77.11 85.69,-106.81 74.62,-63.95 161.76,-112.26 254.43,-144.58 2.65,-0.99 5.54,-1.98 8.42,-3.07 6.5,39 12.76,77.96 19.26,116.96 0.48,2.18 0.72,4.46 1.2,6.64 -5.06,-1.19 -10.11,-2.33 -14.92,-3.42 -9.63,-2.13 -19.26,-4.2 -28.88,-6.33 -9.63,-2.23 -19.5,-4.85 -29.61,-5.4 -6.74,-0.44 -9.87,10.29 -3.61,13.21 16.13,7.48 34.42,10.9 51.27,15.54 9.87,2.68 19.74,5.15 29.37,7.53 6.5,1.58 12.52,3.07 18.77,4.6 0.72,0.15 1.2,0.3 1.93,0.45 33.7,8.26 67.64,16.03 101.58,23.61 68.36,15.29 136.96,29.35 205.81,42.12 38.51,7.13 77.03,14.26 115.78,19.56l0 0c5.3,0.75 10.59,-1.29 12.28,-6.97 0.48,-2.18 0.24,-4.61 -0.72,-6.79 8.91,-10.39 18.05,-20.59 27.68,-30.54 17.33,-18.51 36.59,-37.27 61.38,-45.58 28.4,-9.6 58.01,0.59 86.42,5.2 10.35,1.73 21.18,3.02 31.77,4.01z"/>
  <path class="fil0" d="M1089.93 1310.59c-5.78,6.53 -12.28,12.52 -19.02,18.21 -9.63,8.07 -19.98,15.69 -29.37,23.71 -15.89,13.71 -31.53,27.42 -46.94,41.67 -55.12,51.38 -106.15,107.46 -150.92,167.89 -11.31,15.15 -22.39,30.55 -32.98,46.19 -10.35,15.54 -21.66,31.43 -28.4,49.1 -3.37,9.36 -5.54,19.41 -5.06,29.25 0.48,5.6 1.69,11.14 4.33,16.44 0.72,1.38 1.45,2.67 2.17,3.91 0.48,0.7 0.96,1.29 1.45,1.93 4.09,6.09 9.39,10.55 15.65,13.57 -7.22,4.2 -14.44,8.21 -21.91,12.02 -5.3,-4.16 -9.63,-9.36 -13.24,-15.1 -0.48,-0.79 -0.96,-1.58 -1.45,-2.43 -2.17,-3.72 -3.85,-7.57 -5.05,-11.59 -2.17,-6.53 -3.37,-13.31 -3.61,-20.19 -0.24,-9.26 1.2,-18.62 4.09,-27.67 6.26,-19.95 17.81,-37.62 29.37,-54.8 11.31,-16.78 23.11,-33.31 35.38,-49.5 24.07,-32.27 49.83,-63.46 77.03,-93.26 27.2,-29.75 55.84,-57.91 85.93,-84.64 15.16,-13.51 30.57,-26.72 46.46,-39.29 4.09,-3.23 7.94,-6.54 12.28,-9.81 7.22,-5.99 14.92,-11.98 23.11,-17.08 6.98,0.59 13.72,1.09 20.7,1.44z"/>
  <path class="fil0" d="M1249.76 1843.92c-1.45,11.58 -6.26,22.12 -16.37,28.61 -10.59,6.58 -23.59,6.73 -35.38,4.9 -24.79,-3.81 -48.86,-15.1 -70.29,-27.67 -13.72,-8.02 -26.72,-17.03 -39.23,-26.63l0 0 -1.93 -1.53 -8.67 -6.63 -0.48 -0.55c-4.09,-3.07 -7.7,-6.24 -11.55,-9.41 -19.98,-16.43 -39.48,-33.3 -59.45,-49.5 -9.63,-7.72 -19.5,-15.15 -29.61,-21.97 -6.02,-3.86 -11.79,-7.58 -17.57,-11.28 -1.93,-1.24 -3.61,-2.62 -5.54,-3.97 -3.13,-2.47 -6.26,-4.94 -9.87,-7.02 -5.54,-3.27 -1.69,-12.92 4.57,-10.74 5.54,1.82 11.07,2.91 16.37,4.84 1.2,0.45 2.41,0.94 3.37,1.44 6.26,2.93 12.52,6.24 18.29,9.86 12.04,7.17 23.59,15.04 34.66,23.31 21.91,16.33 42.37,34.6 63.79,51.73 1.69,1.49 3.61,2.97 5.54,4.46 5.78,4.61 11.79,9.11 17.57,13.47 11.31,8.11 22.63,15.84 34.66,22.67 19.26,11.13 41.4,21.73 64.03,24.85 52.47,7.22 5.06,-84.84 -5.3,-103.11 -12.04,-21.28 -26.24,-41.23 -40.68,-60.88 -15.89,-21.88 -32.25,-43.61 -48.62,-65.09 -4.57,-6.05 -9.39,-12.13 -13.96,-18.22 -5.54,-7.18 -11.31,-14.3 -16.85,-21.43 1.69,0.05 3.37,0.1 5.06,0.15 6.98,0.2 13.96,0.35 20.94,0.55 5.3,7.12 10.83,14.25 16.37,21.38 7.46,9.9 15.16,19.85 22.63,29.85 31.53,42.17 64.75,85.29 86.17,133.85 9.39,21.04 19.98,46.18 17.33,69.74z"/>
  <path class="fil0" d="M1206.67 1857.14c-22.63,-3.12 -44.77,-13.72 -64.03,-24.85 -12.04,-6.83 -23.35,-14.56 -34.66,-22.67 0.72,-0.79 1.2,-1.49 1.69,-2.23 5.54,-7.47 8.91,-16.63 10.11,-25.73 3.61,-23.17 -4.33,-45.05 -15.89,-64.84 -11.31,-19.85 -24.55,-38.76 -37.79,-57.32 -11.79,-16.59 -24.31,-32.83 -37.55,-48.31 7.22,-1.19 14.44,-2.03 21.66,-2.53l0.24 0c15.89,0.4 31.77,0.79 47.66,1.18 4.57,6.09 9.39,12.18 13.96,18.22 16.37,21.48 32.74,43.21 48.62,65.09 14.44,19.65 28.64,39.6 40.68,60.88 10.35,18.27 57.77,110.33 5.3,103.11z"/>
  <path class="fil0" d="M1119.78 1781.66c-1.2,9.1 -4.57,18.26 -10.11,25.73 -0.48,0.74 -0.96,1.44 -1.69,2.23 -4.81,6.34 -11.55,13.27 -19.5,13.51l0 0 -1.93 -1.53 -8.67 -6.63 -0.48 -0.55c-0.24,-0.85 0,-1.74 0.24,-2.68 1.69,-5.89 5.54,-7.81 9.63,-11.83 1.2,-1.19 2.17,-2.43 3.13,-3.76 1.44,-1.88 2.65,-3.96 3.85,-6.19 3.61,-7.43 4.57,-16.09 4.09,-24.4 -1.44,-20.35 -14.2,-38.86 -25.03,-55.49 -11.07,-17.33 -22.39,-34.6 -34.42,-51.33 -10.59,-14.75 -21.66,-28.87 -33.7,-42.57 -1.44,-1.98 -3.13,-3.91 -5.05,-5.84 -3.13,-3.87 -6.74,-7.57 -10.11,-11.24 7.22,-2.23 14.68,-4.16 22.15,-5.75 3.85,4.02 7.7,8.12 11.55,12.33 1.69,1.83 3.13,3.62 4.81,5.5 13.24,15.49 25.76,31.73 37.55,48.31 13.24,18.56 26.48,37.47 37.79,57.32 11.55,19.79 19.5,41.67 15.89,64.84z"/>
  <path class="fil0" d="M862.7 1382.85c-1.69,5.69 -6.98,7.72 -12.28,6.97l0 0c-38.75,-5.29 -77.27,-12.43 -115.78,-19.56 -68.84,-12.77 -137.44,-26.83 -205.81,-42.12 -33.94,-7.58 -67.88,-15.34 -101.58,-23.61 -0.72,-0.15 -1.2,-0.3 -1.93,-0.45 -6.26,-1.53 -12.28,-3.02 -18.77,-4.6 -9.63,-2.38 -19.5,-4.85 -29.37,-7.53 -16.85,-4.64 -35.14,-8.07 -51.27,-15.54 -6.26,-2.92 -3.13,-13.65 3.61,-13.21 10.11,0.54 19.98,3.17 29.61,5.4 9.63,2.13 19.26,4.2 28.88,6.33 4.81,1.09 9.87,2.23 14.92,3.42 6.5,1.48 13.24,3.06 19.74,4.6 7.22,1.64 14.2,3.32 21.18,4.96 68.36,15.78 136.72,30.29 205.56,43.94 68.6,13.57 137.69,25.2 206.29,38.76 2.89,0.55 5.3,2.77 6.26,5.45 0.96,2.18 1.2,4.61 0.72,6.79z"/>
  <path class="fil3" d="M1446.9 737.17c-7.22,0.38 -14.44,0.86 -21.66,1.34 -7.7,0.48 -15.65,0.96 -23.35,1.49 -0.72,0 -1.2,0.04 -1.93,0.09 -4.81,0.29 -9.39,0.62 -14.2,0.91 -6.5,0.43 -13,0.81 -19.5,1.24 -7.22,0.48 -14.44,0.91 -21.66,1.39 -170.42,11.09 -340.84,23.52 -511.27,36.92 -94.36,7.48 -188.72,15.1 -283.07,23.17 -47.18,4 -94.36,8.16 -141.54,12.37 -17.57,1.58 -35.38,3.26 -52.96,4.9 -7.46,0.7 -15.41,1.34 -22.87,1.98 0,-3.97 0,-7.87 0.48,-11.78 0,-0.06 0,-0.06 0,-0.1 1.44,-16.43 6.26,-32.03 16.61,-44.99 9.87,-12.13 24.07,-19.79 38.75,-24.29 14.92,-4.59 30.81,-6.03 46.46,-7.47 12.04,-1.15 24.31,-2.29 36.35,-3.39 6.74,12.3 15.89,24.76 30.33,27.59 10.83,2.17 23.11,-1.48 29.13,-10.8 17.33,12.13 40.44,6.54 51.27,-11.34 10.11,6.84 24.79,7.12 34.66,-0.1 5.3,-3.97 8.91,-9.71 12.28,-15.31 1.2,-1.63 2.17,-3.35 3.13,-5.12 11.07,-1.01 22.15,-2.06 32.98,-3.1 3.37,2.25 6.5,4.54 9.87,6.56 10.59,6.21 23.35,10.14 32.5,-0.63 2.89,-3.24 4.81,-6.79 5.78,-10.48 7.22,-0.67 14.2,-1.33 21.18,-2l239.02 -22.78c79.67,-7.56 159.11,-15.17 238.78,-22.73 30.09,-2.87 60.66,-6.85 90.99,-8.89 7.22,-0.54 14.44,-0.91 21.9,-1.15 0.48,-0.05 1.2,-0.05 1.93,-0.05 24.79,-0.62 50.55,2.88 71.73,15.55 5.54,3.35 10.83,7.28 15.65,12.06 0.48,0.38 0.96,0.9 1.45,1.38 12.03,12.3 20.46,27.42 26.48,43.55 1.69,4.59 3.13,9.28 4.33,14.02z"/>
  <path class="fil0" d="M538.22 717.77c-7.46,-23.04 -24.31,-44.34 -41.88,-60.48 -19.98,-18.2 -44.29,-31.56 -70.29,-38.42 -10.11,-2.62 -14.2,12.47 -4.33,15.47 41.16,12.51 78.23,41.85 97.01,81.05 4.57,9.34 7.94,21.73 1.2,30.84 -6.98,9.18 -17.09,4.34 -24.07,-2.05 -8.91,-8.1 -16.37,-17.83 -24.79,-26.35 -8.18,-8.32 -17.33,-16.17 -27.68,-21.88 -10.59,-5.91 -23.11,-9.61 -35.14,-9.26 -11.31,0.31 -25.52,3.41 -31.77,13.8 -2.41,3.97 1.68,8.79 6.02,7.66 5.54,-1.44 10.59,-4.25 16.13,-5.37 5.78,-1.1 11.55,-0.86 17.33,0.14 11.79,2.11 22.38,7.94 31.53,15.63 10.35,8.72 19.26,19.14 28.16,29.22 7.94,8.93 17.33,18.29 29.61,20.41 12.28,2.08 23.35,-3.91 29.85,-13.95 6.98,-10.82 6.98,-24.51 3.13,-36.46z"/>
  <path class="fil0" d="M589.25 714.48c-4.33,-34.36 -24.55,-67.98 -48.62,-92.18 -13.96,-14.07 -30.33,-25.86 -48.14,-34.51 -9.39,-4.53 -17.57,9.4 -8.18,14.04 32.26,15.95 58.25,42.18 74.14,74.53 7.22,14.91 14.68,34 13,50.91 -0.72,8.38 -5.54,15.38 -14.2,16.94 -8.43,1.51 -16.37,-3.35 -20.22,-10.69 -2.89,-5.47 -10.83,-1.59 -9.63,4.06 4.09,17.59 22.38,28.23 39.72,21.84 18.53,-6.83 24.55,-26.7 22.15,-44.94z"/>
  <path class="fil0" d="M630.9 666.72c-6.98,-14.34 -15.89,-27.49 -26,-39.89 -10.11,-12.38 -21.42,-23.41 -34.18,-33.12 -5.06,-4 -14.44,-13.23 -21.66,-10.27 -2.89,1.19 -4.57,3.44 -4.57,6.58 -0.24,4.6 3.37,7.19 6.74,9.53 26.48,18.22 47.9,41.76 62.34,70.75 3.85,7.69 7.22,15.62 9.63,23.79 3.13,9.02 6.5,19.98 2.41,29.2 -2.65,6.55 -9.63,11.71 -16.61,12.61 -9.15,1.19 -15.4,-4.48 -23.35,-7.56 -3.85,-1.59 -7.46,3 -6.5,6.62 3.61,15.16 25.03,19.65 38.03,16.38 16.13,-4.17 26.96,-19.3 27.92,-35.64 0.96,-16.81 -6.98,-34.22 -14.2,-49z"/>
  <path class="fil0" d="M717.79 695.08c-2.17,-0.69 -4.33,1.18 -4.33,3.41 0,2.22 -0.96,4.2 -1.2,6.39 -0.24,2 -0.24,4.02 -0.96,5.98 -1.2,3.88 -3.61,6.85 -7.46,8.42 -8.91,3.68 -18.77,-0.6 -25.76,-6.52 -9.39,-8.3 -15.89,-19.15 -23.35,-29.14 -3.85,-5.13 -8.18,-10.04 -13,-14.21 -4.57,-3.76 -10.83,-8.75 -17.09,-8.08 -4.57,0.49 -7.46,4.72 -5.3,9.03 1.93,3.51 5.54,5.84 8.42,8.54 2.65,2.46 5.06,5.07 7.46,7.89 4.57,5.9 8.42,12.39 12.76,18.63 8.67,13.08 18.77,25.4 33.7,31.35 13.48,5.32 31.05,3.35 40.68,-8.29 8.18,-9.94 10.59,-28.7 -4.57,-33.41z"/>
  <path class="fil0" d="M349.75 945.63c-2.41,-0.24 -4.81,-0.54 -7.22,-0.94 -38.51,-6.33 -71.97,-31.62 -92.19,-64.74 -22.15,-36.73 -28.88,-80.73 -27.92,-123.05 0,-3.56 1.93,-6 4.57,-7.63 1.68,-3.78 7.7,-4.11 8.91,0 2.65,1.35 4.33,4.75 4.33,7.63 -0.48,21.83 1.2,43.61 6.5,64.89 8.43,35.69 26.72,69.01 58.01,89.34 12.76,8.37 27.2,14.51 42.37,17.18 0.96,5.79 1.69,11.54 2.65,17.32z"/>
  <path class="fil3" d="M422.68 1282.96c-6.5,-1.53 -13.24,-3.11 -19.74,-4.6 -0.48,-2.18 -0.72,-4.46 -1.2,-6.64 -6.5,-39 -12.76,-77.96 -19.26,-116.96 -0.96,-6.14 -1.93,-12.28 -2.89,-18.41 -1.45,-9.26 -2.89,-18.62 -4.57,-27.87 -0.96,-7.52 -2.17,-15.05 -3.37,-22.58 -2.65,-16.93 -5.54,-33.85 -7.94,-50.79 -4.81,-29.8 -9.39,-59.7 -13.96,-89.5 -0.96,-5.78 -1.69,-11.53 -2.65,-17.32 -0.72,-4.11 -1.2,-8.22 -1.93,-12.33 -3.13,-19.2 -6.02,-38.31 -8.91,-57.56 -1.69,-11.73 -3.37,-23.56 -3.37,-35.44 7.46,-0.65 15.41,-1.29 22.87,-1.98 0,13.91 2.41,28.16 4.33,40.44 3.37,22.67 6.98,45.34 10.35,68.01 0.96,5.44 1.69,10.89 2.65,16.28 7.46,49.01 14.92,98 22.15,147.06 1.93,12.92 3.85,25.79 5.78,38.71 0.72,5.14 1.69,10.3 2.41,15.49 6.74,45.25 13.72,90.59 19.26,135.97z"/>
  <path class="fil0" d="M1863.8 1414.78c-10.59,80.14 -80.64,137.95 -153.57,162.55 -46.94,15.83 -96.52,20.79 -145.87,21.82 -51.99,1.09 -104.23,-1.29 -156.46,-2.57 -80.4,-1.94 -160.55,-4.02 -240.95,-6.05 1.69,-19.59 3.13,-39.15 5.05,-58.75 4.09,-46.83 8.67,-93.6 13.48,-140.38 1.2,-13.32 2.65,-26.68 3.85,-40.04 0.72,-6.29 1.45,-12.58 1.93,-18.86 0.24,-0.99 0.24,-2.03 0.48,-3.02 58.49,-2.08 116.98,-4.06 175.72,-6.34 30.09,-1.18 60.42,-2.18 90.75,-3.32 7.46,-0.29 14.92,-0.54 22.63,-0.89 21.66,-0.88 43.81,-1.97 65.71,-3.36 14.92,-0.88 29.61,-2.08 44.53,-4.31 7.22,-1.04 4.81,-11.63 -1.69,-12.08 -30.81,-2.32 -62.1,-0.94 -93.15,0.1 -5.06,0.09 -10.11,0.29 -15.16,0.44 0.72,-64.64 0,-129.35 -1.2,-193.99 -0.24,-9.95 -0.48,-19.9 -0.72,-29.85 0.24,0.2 0.48,0.39 0.96,0.59 46.46,22.08 96.52,36.73 144.18,55.94 43.09,17.22 85.45,36.73 123.48,63.4 35.87,25 67.64,56.58 89.3,94.94 20.94,37.27 32.26,81.17 26.72,123.99z"/>
  <path class="fil3" d="M1481.08 1299.74c-7.7,0.29 -15.41,0.54 -22.87,0.79 0,-4.85 0,-9.65 0,-14.45 0,-71.82 -0.24,-143.74 -2.41,-215.57 0,-6.78 -0.24,-13.56 -0.48,-20.39 -2.41,-75.09 -6.98,-150.18 -15.89,-224.97 -2.89,-25.99 -5.3,-58.35 -14.2,-86.65 7.22,-0.47 14.44,-0.95 21.66,-1.34 2.17,7.27 3.85,14.58 5.3,21.9 6.98,36.39 10.59,73.71 14.2,110.53 5.78,57.67 9.39,115.59 11.55,173.44 0.24,7.23 0.48,14.41 0.72,21.64 0,0.64 0,1.19 0,1.83 0.24,3.11 0.24,6.23 0.48,9.4 0.24,9.95 0.48,19.9 0.72,29.85 1.2,64.64 1.93,129.34 1.2,193.99z"/>
  <path class="fil0" d="M974.15 134.2c1.2,4.5 4.81,7.52 9.15,9.77 -3.37,0.67 -7.22,-0.52 -9.15,-4.31 -6.98,-12.82 -13.24,-25.84 -21.91,-37.75 -8.18,-11.59 -18.05,-22.11 -28.64,-31.54 -20.94,-18.42 -46.22,-32.25 -72.93,-39.86 -0.24,-0.09 -0.72,-0.14 -0.96,-0.24 -1.2,-6.89 -2.89,-14.84 -9.15,-17.27 -1.45,-0.57 -3.61,0.09 -4.57,1.19 -2.89,3.11 -3.13,7.76 -2.41,12.44 0.48,3.88 1.45,7.8 1.69,10.96 1.2,8.42 1.93,16.93 2.41,25.41 0.72,17.22 0,34.64 -2.41,51.71 -2.41,16.85 -6.26,33.55 -11.79,49.68 -2.65,8.32 -6.02,16.5 -9.39,24.59 -2.17,5.36 -6.74,11.58 -7.46,17.61 -6.74,-4.83 -14.92,-7.51 -23.35,-7.56 -14.92,-0.04 -27.68,7.75 -36.35,19.47 -17.57,24.59 -7.22,59.57 18.53,74.02 6.74,3.88 14.44,6.17 22.15,7.08 -6.02,26.32 -5.3,53.4 -4.09,80.29 0.96,24.45 1.93,48.94 -4.81,72.68 -5.06,18.61 -14.44,37.56 -30.09,49.47 -19.26,14.64 -43.33,12.97 -65.47,6.18 -26.24,-8.09 -51.03,-21.25 -76.06,-32.39 -15.89,-7.03 -31.77,-13.79 -48.38,-19.15 -0.24,-0.28 -0.48,-0.62 -0.72,-0.91 -2.17,-2.96 -5.54,-3.16 -7.7,-1.67 -7.46,-2.15 -14.92,-3.97 -22.39,-5.41 -17.81,-3.35 -36.59,-4.4 -54.64,-2.06 -9.15,1.16 -17.81,3.11 -26.48,6.03 -6.5,2.25 -13,4.93 -19.02,7.99 24.31,-23.54 51.75,-43.39 75.82,-67.42 23.35,-23.49 43.57,-49.85 57.05,-80.37 24.31,-55.5 25.76,-117.85 47.66,-174.21 10.59,-27.14 25.03,-51.96 45.49,-72.87 19.02,-19.53 42.13,-35.31 67.16,-46.13 51.75,-22.25 109.04,-22.82 160.79,-0.33 24.31,10.58 46.7,25.93 65.47,44.73 17.57,17.66 34.42,39.72 42.36,63.74 -0.48,-0.25 -0.96,-0.43 -1.44,-0.63 -1.93,-0.72 -4.57,-2 -7.22,-1.91 -4.57,0.24 -8.18,4.36 -6.74,8.94z"/>
  <path class="fil0" d="M970.3 447.98l0 0.81c0.24,21.96 -4.33,43.98 -12.76,64.21 -15.65,37.95 -44.53,68.95 -81.6,86.99 -39.48,19.32 -84.49,24.11 -127.58,17.36 -43.33,-6.75 -83.77,-26.55 -117.71,-53.88 -17.09,-13.78 -32.74,-29.42 -46.7,-46.37 -6.98,-8.56 -13.72,-17.47 -19.98,-26.6 -2.89,-4.46 -5.78,-8.9 -8.18,-13.45 -2.65,-5.02 -5.05,-10.19 -7.46,-15.6 -1.44,-3.26 -0.24,-6.03 1.93,-7.37 2.17,-1.48 5.54,-1.29 7.7,1.67 0.24,0.29 0.48,0.63 0.72,0.91 7.22,9.33 14.2,18.47 20.94,27.9 0.72,0.87 1.2,1.68 1.93,2.48 6.02,8.24 12.52,16.13 19.5,23.74 14.92,16.98 31.77,32.44 50.31,45.78 32.5,23.55 70.29,40.05 110.49,44.26 39.72,4.12 80.64,-2.34 115.54,-22.3 32.25,-18.47 56.32,-48.47 68.12,-83.68 4.81,-14.5 7.46,-29.53 7.7,-44.74 0,-2.34 0,-4.74 0,-7.13 -0.24,-4.21 -0.48,-8.38 -1.2,-12.49 3.37,-0.48 6.74,-0.96 10.11,-1.39 2.17,-0.29 4.33,-0.57 6.5,-0.86 0.96,6.52 1.69,13.17 1.69,19.72z"/>
  <path class="fil0" d="M1647.41 625.59c0,6.32 -0.24,12.69 -0.24,18.99 -6.26,3.5 -13,6.56 -19.74,9.28l0 0 -4.33 1.72c-39.72,15.07 -84.25,16.14 -124.69,2.45 -19.5,-6.6 -37.79,-16.22 -54.16,-28.55 -5.78,-4.41 -11.55,-9.05 -16.85,-14.03 -1.93,-1.86 -3.85,-3.73 -5.78,-5.69 -3.37,-3.5 -6.98,-7.23 -10.11,-11.1 1.44,-7.47 2.65,-14.88 4.09,-22.3 5.54,6.12 10.35,12.68 15.89,18.76 1.69,1.77 3.37,3.44 4.81,5.11 7.46,7.28 15.65,13.88 24.07,19.72 31.77,21.47 69.81,32.33 108.08,29.85 21.18,-1.38 40.92,-6.74 59.7,-14.84 6.5,-2.77 13,-5.92 19.26,-9.38z"/>
  <path class="fil0" d="M835.98 216.89c-0.72,-3.5 -1.44,-6.96 -2.17,-10.44 -1.2,-6.95 -2.65,-13.91 -3.85,-20.87 -0.72,-3.72 -5.06,-5.94 -8.42,-5.47 -3.61,0.47 -6.98,3.69 -6.74,7.51 0,0.63 0.24,1.26 0.24,1.89 -0.72,0.02 -1.2,0.12 -1.93,0.45 -2.65,1.47 -3.85,5.22 -3.85,8.16 -0.24,3.07 1.2,6.69 2.17,9.58 0.24,0.79 0.48,1.54 0.72,2.32 -0.96,-0.61 -1.93,-1.16 -2.89,-1.45 -4.57,-1.26 -7.7,3.58 -5.78,7.42 1.44,3.13 5.06,5.56 7.7,7.86 2.65,2.36 5.05,4.72 7.7,7.08 3.13,2.81 6.5,5.58 11.07,4.58 4.33,-0.95 6.74,-4.6 6.98,-8.82 0.24,-3.19 -0.48,-6.66 -0.96,-9.82z"/>
  <path class="fil2" d="M1379.74 692.86c-1.2,-2.21 -3.13,-3.98 -5.3,-5.33 -2.17,-1.37 -4.82,-2 -7.22,-2.08 -0.96,0.12 -1.93,0.23 -2.65,0.36 -1.2,0.3 -2.41,0.87 -3.37,1.75 -0.72,0.42 -1.2,1.01 -1.69,1.74 -0.48,0.4 -0.72,0.85 -0.96,1.3 -0.72,0.74 -1.44,1.57 -2.17,2.59 -0.24,0.25 -0.24,0.5 -0.48,0.78 -0.48,0.98 -0.96,2.04 -1.2,3.13 -0.24,0.56 -0.24,1.18 -0.24,1.72 -0.24,0.54 -0.24,1.12 -0.24,1.68 0,1.16 0.24,2.41 0.48,3.51 0,0.31 0,0.59 0.24,0.89 0.24,0.94 0.72,2.18 1.44,3.07 1.44,2.12 1.69,2.41 3.85,3.96 0.24,0.1 0.24,0.2 0.48,0.28 0,0.05 0,0.09 0.24,0.14 0.72,0.37 1.69,0.75 2.41,1.05 0.96,0.4 2.41,0.48 3.61,0.57 0.24,0.04 0.72,0.04 0.96,0 0.96,-0.1 2.41,-0.2 3.61,-0.56 0.96,-0.37 2.17,-0.8 3.13,-1.39 2.17,-1.26 3.61,-2.77 4.81,-4.76 0.24,-0.16 0.24,-0.34 0.48,-0.51 0,-0.09 0,-0.19 0,-0.28 0.48,-0.81 0.96,-1.66 1.2,-2.5 0.24,-1.19 0.48,-2.52 0.48,-3.78 0,-2.5 -0.72,-5.16 -1.93,-7.32z"/>
  <path class="fil2" d="M1325.34 700.3c0,-0.22 0,-0.46 -0.24,-0.69 0,-2.11 -0.72,-4.38 -1.93,-6.07 -0.96,-1.77 -2.17,-3 -3.85,-4.08 -2.17,-1.15 -4.09,-1.43 -6.26,-1.52 -2.89,-0.13 -5.54,0.98 -7.94,2.11 -0.48,0.22 -0.96,0.49 -1.45,0.79 0,0.02 0,0.04 0,0.05 -0.24,0.06 -0.24,0.1 -0.24,0.16 -1.45,0.56 -2.41,1.47 -3.37,2.42 -0.72,0.72 -1.69,1.95 -2.17,2.57 0,0.1 0,0.21 -0.24,0.32 -0.48,0.89 -0.96,2.05 -0.96,3.24 -0.24,0.13 -0.24,0.26 -0.24,0.4 -0.96,2.56 -0.72,5.32 -0.24,7.93 0.48,2.54 1.93,4.92 3.61,6.78 1.93,1.96 4.33,3.24 6.98,4.06 0,0.08 0.24,0.13 0.48,0.18 1.2,0.2 2.17,0.34 3.37,0.44 1.2,0.12 2.65,-0.18 4.09,-0.41 1.2,-0.23 2.41,-0.87 3.61,-1.44 1.2,-0.59 2.17,-1.45 3.13,-2.35 0.48,-0.45 0.72,-1.04 1.2,-1.51 0.48,-0.51 0.72,-1.02 1.2,-1.58 0.48,-1.16 1.2,-2.41 1.44,-3.69 0.72,-2.77 0.72,-5.33 0,-8.1z"/>
  <path class="fil1" d="M1060.56 1001.27c9.15,-16.93 28.16,-25.93 45.25,-32.82 4.33,-1.73 8.91,-3.76 13.72,-4.01 3.61,-0.2 9.87,1.29 9.39,5.99 -0.48,4.2 -5.78,7.92 -8.67,10.34 -4.09,3.32 -7.94,6.58 -12.28,9.75 -16.13,12.48 -33.46,23.61 -51.27,33.56 0,0.05 -0.24,0.1 -0.24,0.2 -1.45,-7.37 0.24,-15.48 4.09,-23.02zm-146.59 4.65c5.54,-7.17 12.28,-13.46 19.98,-18.31 2.89,-1.97 6.26,-4.25 9.87,-5.15 1.2,-0.35 2.65,-0.2 3.85,-0.3 -1.2,1.09 -2.41,3.67 -3.37,4.8 -1.44,1.73 -2.89,3.41 -4.33,5.1 -3.13,3.87 -6.5,7.67 -10.11,11.34 -6.5,6.93 -13.48,13.51 -20.46,19.79 -2.41,1.98 -4.57,3.87 -6.98,5.75 2.41,-8.37 6.5,-16.33 11.55,-23.02zm-175 -1.68c3.85,-5.59 12.04,-12.12 19.5,-8.51 7.7,3.76 5.06,14.75 1.69,20.49 -5.06,8.37 -13.24,14.85 -20.46,21.29 -5.78,5.2 -11.79,10.19 -17.81,15.04 0.48,-7.13 2.41,-14.25 4.57,-21.03 3.13,-9.26 6.74,-19.26 12.52,-27.28zm447.48 31.13c-18.29,9.41 -38.27,14.75 -58.73,16.44 -17.81,1.48 -39.72,1.14 -56.08,-7.48 -3.61,-1.88 -6.5,-4.2 -8.91,-6.87 15.41,-8.61 30.09,-18.12 44.29,-28.61 13,-9.8 48.86,-31.58 29.85,-51.13 -8.67,-8.86 -21.18,-7.28 -32.01,-3.41 -10.59,3.91 -21.42,8.36 -31.29,14.4 -19.02,11.83 -34.9,31.77 -32.98,55.49 0.24,2.72 0.96,5.29 1.44,7.72 -31.05,15.89 -64.27,28.31 -98.21,35.24 -16.13,3.27 -36.35,3.07 -41.64,-15.89 -0.24,-0.64 -0.24,-1.29 -0.48,-1.93 2.41,-1.78 4.81,-3.47 6.98,-5.29 18.29,-14.65 35.14,-31.39 49.59,-49.9 6.26,-8.01 9.15,-20.09 -2.17,-25.64 -9.15,-4.55 -19.5,-0.39 -27.68,4.41 -18.53,11.09 -34.18,29.36 -40.2,50.34 -1.68,5.93 -2.65,12.33 -2.41,18.61 -22.63,16.04 -47.42,29.05 -73.42,38.26 -17.09,6.14 -35.87,12.38 -54.4,12.48 -8.67,0.05 -18.05,-1.79 -24.79,-7.82 -4.57,-4.11 -7.7,-9.75 -9.39,-15.69 5.54,-4.25 11.31,-8.62 16.85,-13.06 9.39,-7.78 19.5,-15.74 27.68,-25.2 7.22,-8.57 12.04,-18.8 10.35,-30.24 -1.69,-11.59 -10.11,-20.59 -21.91,-21.93 -26,-2.97 -38.03,25.34 -45.01,45.34 -4.81,12.92 -7.22,27.17 -5.54,40.58 -13.48,9.9 -27.44,19.16 -41.88,27.82 -8.91,5.45 -18.05,10.39 -27.44,15.15 -5.54,2.82 -0.72,10.59 4.81,8.22 23.83,-10.2 46.7,-22.12 68.12,-36.73 0,-0.05 0,-0.1 0.24,-0.15 1.93,5.05 4.82,9.84 8.67,14.25 15.89,18.51 42.61,17.23 64.27,12.33 37.79,-8.57 73.66,-24.95 105.67,-46.83 2.89,7.67 7.7,14.4 15.16,19.1 20.22,12.67 47.42,3.66 68.12,-2.33 24.31,-6.93 47.9,-16.13 70.53,-27.17 1.93,-1.03 3.85,-2.13 6.02,-3.17 8.18,11.34 22.15,18.27 36.83,21.44 24.31,5.4 51.03,4.05 74.86,-3.52 11.55,-3.71 22.87,-8.72 33.46,-14.95 8.18,-4.79 0.96,-16.98 -7.22,-12.67z"/>
 </g>
</svg>
